<?xml version="1.0" encoding="UTF-8"?>
<!DOCTYPE svg PUBLIC "-//W3C//DTD SVG 1.1//EN" "http://www.w3.org/Graphics/SVG/1.1/DTD/svg11.dtd">
<!-- Creator: CorelDRAW -->
<svg xmlns="http://www.w3.org/2000/svg" xml:space="preserve" width="215.9mm" height="279.4mm" version="1.1" style="shape-rendering:geometricPrecision; text-rendering:geometricPrecision; image-rendering:optimizeQuality; fill-rule:evenodd; clip-rule:evenodd"
viewBox="0 0 21590 27940"
 xmlns:xlink="http://www.w3.org/1999/xlink"
 xmlns:xodm="http://www.corel.com/coreldraw/odm/2003">
 <defs>
  <style type="text/css">
   <![CDATA[
    .str0 {stroke:white;stroke-width:7.62;stroke-miterlimit:2.61313}
    .str1 {stroke:#2B2B2A;stroke-width:282.22;stroke-miterlimit:2.61313}
    .str2 {stroke:#FFEE00;stroke-width:7.62;stroke-miterlimit:2.61313}
    .fil2 {fill:none}
    .fil0 {fill:white}
    .fil3 {fill:#2B2B2A}
    .fil1 {fill:#FFEE00}
   ]]>
  </style>
 </defs>
 <g id="Layer_x0020_1">
  <metadata id="CorelCorpID_0Corel-Layer"/>
  <rect class="fil0 str0" x="7342.11" y="9871.71" width="6970.32" height="6873.5"/>
  <path class="fil1" d="M10801.3 10337.22c1656.59,0 3000.02,1343.45 3000.02,2999.99 0.01,1656.58 -1343.44,3000.02 -3000.02,3000.02 -1656.54,-0.01 -2999.98,-1343.44 -2999.98,-3000.02 0,-1656.54 1343.44,-2999.98 2999.98,-2999.99z"/>
  <path class="fil2 str1" d="M10801.3 10337.22c1656.59,0 3000.02,1343.45 3000.02,2999.99 0,1656.58 -1343.44,3000.02 -3000.02,3000.02 -1656.54,-0.01 -2999.98,-1343.44 -2999.98,-3000.02 0,-1656.54 1343.44,-2999.98 2999.98,-2999.99z"/>
  <path class="fil1" d="M10801.3 11690.76c909.17,0 1646.47,737.31 1646.47,1646.45 0.01,909.15 -737.3,1646.47 -1646.47,1646.47 -909.14,0 -1646.45,-737.31 -1646.45,-1646.47 0,-909.15 737.31,-1646.45 1646.45,-1646.45z"/>
  <path class="fil2 str1" d="M10801.3 11690.76c909.17,0 1646.47,737.31 1646.47,1646.45 0,909.15 -737.3,1646.47 -1646.47,1646.47 -909.14,0 -1646.45,-737.31 -1646.45,-1646.47 0,-909.15 737.31,-1646.45 1646.45,-1646.45z"/>
  <polygon class="fil3" points="11428.11,11026.38 11428.11,11374.58 10216.39,11374.58 10462.46,11202.8 10462.46,10887.09 10239.6,10733.89 11066,10733.89 10787.44,10896.38 10787.44,11230.66 11182.05,11230.66 "/>
  <polygon class="fil3" points="13248.76,12093.26 12862.74,12165.28 13059.63,11823.28 "/>
  <path class="fil3" d="M8422 12278.06l-57.91 -136.25 295.56 96.94c-146.25,118.15 -248.45,236.1 -296.13,396.36 -41.82,157.28 27.66,258.26 129.13,291.54 95.6,36.24 223.04,-24.56 266.45,-156.9 15.84,-63.21 24.31,-133.72 24.03,-192.44l-48.52 -15.93 -219.31 191.91 240.2 -732.28 86.4 257.98 189.68 62.22 -112.47 119.45c5.05,133.58 -14.79,283.43 -64.06,418.74 -95.71,247.1 -283.99,478.51 -481.06,408.98 -208.85,-78.29 -213.65,-465.84 -125.24,-705.58 36.18,-110.29 100.27,-216.29 173.25,-304.74z"/>
  <path class="fil3" d="M9718.63 15032.17l147.75 -9.62 -189.22 246.91c-63.15,-177.1 -144.36,-315.36 -276.16,-410.52 -134.62,-91.48 -252.88,-59.27 -321.52,22.66 -62.13,81.06 -46.88,221.44 63.67,306.17 54.42,35.84 118.16,67.15 173.68,86.3l31.06 -40.54 -108.62 -270.42 611.71 468.8 -272.03 -3.76 -121.44 158.44 -75.56 -145.63c-127.73,-39.4 -266.28,-110.48 -374,-198.89 -201.57,-172.02 -357.72,-426.22 -226.95,-589.21 139.23,-174.07 506.6,-50.45 707.3,115.06 92.13,70.59 170.99,166.13 230.33,264.25z"/>
  <path class="fil3" d="M12559.94 12443.76l312.27 -71.46c-98.49,193.99 -107.89,381.89 -38.39,623.17 13.86,39.69 33.52,125.68 73.22,111.84 47.71,-20.46 -5.33,-127.38 -20.48,-214.4 -30.96,-197.71 -109.01,-518 119.73,-579.86 161.89,-41.81 275.22,203.73 314.58,375.7 23.82,104.09 27.08,222.41 20.63,319.14l97.54 134.84 -271.53 62.14c66.42,-167.61 58.36,-327.69 35.69,-489.19 -9.96,-64.41 -38.97,-191.12 -78.66,-177.27 -52.23,21.47 -3.45,172.25 9.24,269.35 27.86,184.13 88.18,489.43 -117.93,546.12 -162.91,37.28 -267.97,-172.05 -316.65,-384.76 -26.91,-117.67 -27.46,-203.27 -27.23,-327.15 0.51,-81.08 -49.17,-131.63 -112.03,-198.21z"/>
  <path class="fil3" d="M12248.08 11994.52l-681.32 -560.28 282.51 21.93 203.48 -247.42 -64.69 -257.55 666.95 548.48c233.09,191.68 248.2,414.5 144.35,533.47 -100.25,121.91 -321.8,150.11 -551.28,-38.63z"/>
  <path class="fil1 str2" d="M12312.59 11404.42l182.88 150.4c161.36,132.69 -59.81,401.64 -221.17,268.94l-182.87 -150.41 221.16 -268.93z"/>
  <path class="fil3" d="M9259.24 11218.8c197.13,-139.37 567.21,-219.07 674.42,-67.44 104.52,147.83 -23.11,425.71 -288.46,613.33 -265.36,187.62 -566.1,212.61 -670.63,64.76 -107.21,-151.63 87.55,-471.27 284.67,-610.65z"/>
  <path class="fil1 str2" d="M9331.61 11321.16c90.98,-64.33 224.19,-44.79 291.2,49.98 64.32,90.98 38.32,223.08 -52.66,287.4 -90.98,64.32 -220.4,42.12 -284.73,-48.86 -67,-94.78 -44.79,-224.2 46.19,-288.52z"/>
  <path class="fil1" d="M13268.08 14367.58c39.44,45.38 28.69,111.63 -16.71,151.07 -38.91,33.79 -106,35.18 -145.44,-10.22 -39.44,-45.4 -34.33,-118.11 4.58,-151.92 45.4,-39.44 118.12,-34.33 157.57,11.07z"/>
  <polygon class="fil3" points="11175.45,15916.64 10335.14,15916.64 10595.12,15744.86 10595.12,15684.51 10307.28,15410.6 10084.43,15275.97 11426.16,15275.97 11189.38,15405.95 10910.83,15684.51 10910.83,15744.86 "/>
  <polygon class="fil1" points="10831.91,15285.24 10966.54,15387.39 10822.61,15540.59 10674.05,15405.95 "/>
  <path class="fil3" d="M13141.62 14677.14l-1156.74 1032.69 68.05 -272.34 -213.35 -238.96 -277.91 30.29 519.49 -463.78 261.7 139.77 -95.46 -288.18 453.69 -405.04 -41.82 273.82 210.26 235.51c0,0 269,-47.23 272.09,-43.78z"/>
  <polygon class="fil1" points="12522.81,15210.94 12281.51,15233.42 12077.43,15004.85 "/>
  <polygon class="fil1" points="12657.87,15090.35 12707.48,14853.13 12503.43,14624.56 "/>
  <path class="fil3" d="M10588.03 14563c0,-9.24 2.06,-11.28 7.19,-18.48 8.23,-5.13 15.41,-10.27 23.63,-15.4 4.11,-2.07 7.19,-4.11 12.33,-6.17 3.09,-3.08 7.19,-6.16 10.27,-8.22 2.06,-5.15 5.14,-10.27 7.2,-15.41 3.09,-4.12 7.19,-9.24 10.27,-14.38 13.36,-14.38 28.76,-28.76 35.95,-47.25 3.08,-11.3 5.14,-22.6 8.22,-33.9 3.09,-3.09 6.16,-6.17 9.25,-8.22 0,-10.28 -3.09,-24.66 -10.28,-32.88 0,-2.06 -1.02,-4.11 -2.05,-5.13 -6.16,-14.39 -13.36,-27.74 -19.52,-41.09 -42.12,-81.17 -78.07,-175.67 -62.67,-269.15 1.04,-8.22 3.09,-15.41 4.11,-23.63 9.26,-27.74 19.52,-55.47 32.88,-83.21 4.11,-9.24 10.27,-18.49 15.41,-28.76 -3.07,-15.41 -6.17,-29.8 -9.25,-45.2 -2.05,-8.22 -5.13,-16.44 -7.19,-24.66 -8.21,-8.23 -16.43,-16.44 -23.63,-23.63 -9.24,-10.27 -17.46,-21.57 -26.71,-31.84 -6.15,-10.28 -13.35,-20.55 -19.52,-30.82 -4.1,-6.17 -7.19,-13.36 -10.27,-18.49 -4.1,-9.25 -8.22,-18.49 -12.32,-28.77 -12.32,-20.55 -17.47,-51.36 -22.6,-73.96 -3.09,-15.42 -5.14,-29.79 -7.2,-44.17 -2.05,-15.42 -3.08,-29.79 -4.1,-44.18 0.01,-24.66 0,-49.31 0,-73.96 3.08,-50.34 14.38,-98.62 24.65,-147.93 -12.33,1.03 -24.65,7.19 -35.95,7.19 -17.47,5.14 -33.91,10.27 -50.34,15.41 0,11.3 0,23.63 1.02,35.95 -4.09,7.19 -9.24,13.36 -15.4,20.55 -9.24,1.02 -7.2,0 -10.28,7.19 -1.02,1.03 -2.05,2.05 -4.11,3.08 -4.11,1.02 -12.32,4.11 -17.46,3.08 -2.05,-1.02 -7.19,-6.16 -10.27,-5.13 -4.1,4.11 -12.33,8.22 -18.5,8.22 -3.08,-2.06 -6.16,-4.11 -9.24,-6.17 -1.03,3.08 -2.06,5.14 -4.11,7.2 -7.19,4.09 -16.44,4.1 -24.65,4.1 -2.06,-1.03 -4.11,-3.08 -5.14,-4.1 -5.14,0 -10.27,2.05 -14.38,3.08 -6.17,-0.01 -12.33,-1.03 -18.49,-1.03 -3.08,-4.12 -2.06,-10.28 -8.22,-10.28 -12.33,7.19 -24.66,14.39 -35.95,21.58 0,1.02 0,1.03 0,2.05 28.76,42.11 57.52,83.21 86.28,125.33 1.03,2.05 2.06,4.11 3.09,6.17 0,14.38 -10.28,20.54 -22.6,25.68 -3.08,0 -6.17,0 -9.25,-1.03 -12.33,-11.31 -21.57,-26.71 -30.82,-40.06 -3.08,-2.06 -5.13,-5.14 -8.21,-2.06 0,1.03 0,1.03 0,2.06 4.1,5.13 11.3,14.38 7.19,21.57 -4.11,4.11 -9.25,8.22 -13.36,11.3 -8.22,5.13 -15.41,8.22 -24.66,4.11 -8.21,-11.3 -17.46,-23.63 -24.65,-34.93 -2.05,-0.01 -5.14,-5.13 -5.14,-6.16 -4.1,-0.01 -5.13,1.03 -5.13,6.16 6.16,9.24 10.27,13.36 4.11,23.63 -7.19,6.16 -16.44,12.33 -25.68,13.35 -9.25,-4.11 -14.39,-12.32 -20.55,-21.57 -4.11,-0.01 -12.33,-19.52 -17.46,-21.57 -1.03,-0.01 -2.06,1.03 -3.08,1.03 0,9.23 10.27,15.4 6.16,25.68 -5.14,3.08 -10.27,8.22 -15.41,12.32 -3.08,2.06 -7.19,4.11 -11.3,4.11 -14.38,-7.19 -19.52,-19.51 -27.74,-32.87 -2.05,-2.05 -3.08,-3.08 -4.11,-5.13 -11.3,-0.01 -18.49,10.27 -27.73,14.38 -3.09,0 -6.17,0 -9.25,0 -4.11,-5.14 -15.41,-16.44 -8.22,-22.6 6.17,-5.14 11.3,-9.25 17.47,-13.36 2.05,-2.06 5.13,-5.14 8.21,-7.19 -8.21,-12.33 -18.49,-25.68 -24.65,-39.04 0,-3.08 -1.03,-5.13 -1.03,-7.19 6.17,-12.32 12.33,-14.38 23.63,-20.54 2.05,-0.01 3.08,0 5.14,0 7.19,4.1 7.19,11.3 16.43,13.35 2.06,-2.05 2.06,-4.11 2.06,-7.19 -7.19,-9.24 -14.39,-19.52 -20.55,-29.79 -3.08,-7.19 -9.24,-16.44 -3.08,-24.66 7.19,-6.17 14.38,-12.32 24.65,-12.32 4.11,3.08 13.36,18.49 18.49,13.35 0,-1.04 0,-2.05 0,-3.08 -10.27,-13.36 -19.51,-29.79 -26.7,-45.2 2.05,-14.38 13.35,-19.52 26.7,-24.66 1.03,-0.01 3.09,0 5.14,0 3.08,3.09 11.3,12.33 16.44,12.33 3.08,-2.05 1.03,-6.16 -1.03,-8.22 -8.22,-13.36 -16.44,-24.65 -24.65,-36.98 0,-4.12 -1.03,-6.16 0,-9.25 3.08,-3.08 5.13,-6.16 8.21,-9.24 2.06,-2.07 5.14,-4.11 7.19,-5.14 6.17,-3.08 8.23,-4.11 14.39,-4.11 3.08,2.05 5.14,4.11 8.22,6.17 28.76,42.12 57.52,84.24 87.31,125.33 1.03,-0.01 2.06,0 3.09,0 15.4,-8.22 30.82,-17.47 46.23,-26.71 0,-7.19 -1.03,-14.38 -1.03,-21.58 15.41,-23.62 30.82,-48.28 44.17,-72.93 0,-2.07 0,-3.09 0,-4.11 -16.44,-38.01 -33.9,-73.97 -46.23,-113 -1.02,-8.23 -3.08,-16.44 -4.11,-24.66 -1.02,-9.24 -2.05,-17.46 -3.08,-26.71 0,-25.68 2.06,-50.33 7.19,-74.99 -1.02,-8.22 -2.05,-15.41 -2.05,-23.63 0,-8.23 -1.03,-18.49 1.03,-26.71 2.05,-5.14 5.13,-11.3 8.21,-16.43 2.06,-7.19 3.09,-14.38 5.14,-20.55 4.11,-38.02 -3.08,-77.05 6.16,-114.03 2.06,-5.13 4.11,-10.27 6.17,-14.38 0,-23.63 2.05,-46.23 8.22,-69.85 5.13,-14.39 11.3,-28.77 18.49,-43.15 8.21,-11.31 16.43,-21.57 25.68,-31.85 -1.03,-4.11 -1.03,-7.19 -1.03,-11.3 1.03,-14.38 2.06,-29.79 6.16,-44.17 3.09,-8.23 6.17,-16.44 9.25,-23.63 3.08,-6.17 7.19,-11.3 10.28,-16.43 9.25,-13.37 20.54,-22.61 33.89,-32.88 22.6,-14.38 44.18,-21.57 70.89,-26.71 12.34,-0.01 24.65,0 36.98,0 7.2,2.06 15.41,3.09 22.6,5.14 7.2,-9.25 14.38,-18.49 21.57,-27.74 7.2,-12.32 23.63,-22.6 35.96,-30.81 6.16,-3.09 12.32,-6.17 19.52,-10.28 15.42,-5.13 29.79,-10.27 45.2,-15.41 10.27,-20.54 8.21,-49.31 9.24,-71.91 2.06,-10.28 4.11,-21.57 9.25,-30.81 0.01,-1.04 0,-2.06 0,-3.09 -2.06,-5.14 -3.08,-11.3 -5.14,-17.46 -18.49,-8.23 -26.71,-22.6 -31.84,-42.12 0.01,-10.28 -3.09,-30.82 5.13,-39.04 2.06,-1.02 8.22,-4.11 8.22,-5.13 -1.02,-9.26 -2.05,-18.49 -3.08,-26.71 0.01,-11.3 0,-22.6 0,-33.9 3.08,-24.66 8.22,-49.31 22.6,-69.86 12.33,-14.38 23.63,-23.62 40.06,-32.87 7.2,-3.08 15.41,-6.17 22.6,-9.25 8.22,-2.06 16.44,-4.11 25.69,-5.13 10.27,0 21.57,0 32.87,0 31.84,5.13 55.47,14.38 80.13,35.95 4.11,5.13 7.19,9.25 11.3,14.38 3.09,4.11 5.13,9.25 8.22,13.36 2.05,8.21 4.1,16.43 7.19,25.68 0,6.15 1.02,13.35 2.05,20.55 0.01,18.49 0,36.98 1.03,54.44 0.01,3.08 1.02,5.14 1.02,8.22 4.12,0 8.22,4.11 10.28,6.16 6.16,18.49 2.05,39.04 -6.17,56.5 -6.15,7.19 -11.3,15.41 -17.46,23.63 -1.03,7.18 -2.05,14.39 -3.08,21.58 10.28,26.71 7.19,56.5 11.3,84.23 2.05,6.17 4.11,12.33 6.16,19.52 3.09,1.02 5.14,2.06 8.22,4.11 11.31,2.05 22.6,5.14 33.9,9.25 34.94,13.34 58.56,40.06 82.18,67.8 24.67,-5.15 50.34,-5.14 75,-2.06 14.39,3.07 27.73,8.22 41.09,13.36 8.21,6.16 16.43,11.3 24.65,16.43 5.14,5.13 11.3,11.3 17.46,16.44 3.09,5.13 7.2,10.27 11.3,14.38 2.06,4.11 4.11,8.22 6.17,12.33 6.16,15.4 11.3,31.84 14.38,48.28 1.04,11.3 2.06,22.6 3.08,33.9 12.34,14.38 22.6,29.79 31.85,45.2 5.14,13.36 9.24,25.68 14.38,39.04 2.06,14.37 5.14,28.76 8.22,44.17 0,13.35 4.11,24.66 7.19,38.01 1.04,10.28 3.08,20.55 4.11,30.82 0,22.6 -1.03,44.17 -1.03,66.78 5.14,19.5 14.38,38 18.49,57.52 0.01,5.14 0,11.3 0,16.44 -1.02,5.13 -2.05,10.27 -2.05,14.38 3.09,14.38 6.16,27.74 8.22,42.12 0.01,14.38 0,28.76 0,44.17 -2.06,21.56 -7.2,44.17 -14.39,65.75 -12.31,30.81 -26.7,61.64 -35.95,93.48 0,9.25 6.16,19.52 10.27,27.74 6.18,10.27 12.33,21.57 19.52,31.84 4.12,4.11 7.19,12.33 10.27,17.47 0.01,6.15 1.03,13.35 1.03,20.54 1.03,-0.01 42.12,26.71 45.2,25.68 29.79,-41.1 58.56,-83.2 87.32,-124.3 3.08,-1.02 5.14,-2.05 7.19,-3.08 9.26,-0.01 18.49,6.17 24.66,14.38 0.01,3.07 0,5.14 1.03,8.22 -1.02,2.06 -2.06,4.11 -2.06,6.17 -9.24,13.35 -18.49,26.71 -26.71,40.06 0.01,3.08 5.14,3.08 7.19,2.06 4.12,-6.18 7.19,-11.3 14.38,-14.39 4.11,0 8.22,0 12.33,2.06 5.15,4.11 11.3,9.24 17.46,13.35 0,4.1 -1.02,8.22 -1.02,13.36 -9.25,13.35 -18.49,26.71 -26.71,41.09 0.01,13.34 14.38,-9.25 17.46,-11.3 2.07,0 5.14,0 9.25,0 10.28,4.1 16.43,9.24 24.65,16.43 -1.03,4.1 -1.03,7.19 -1.03,10.28 -10.27,15.4 -20.54,30.82 -30.81,46.23 1.03,3.08 1.02,5.13 5.13,5.13 4.11,-5.14 8.22,-9.24 12.33,-13.35 11.31,-8.23 25.68,4.11 33.9,12.33 0,4.1 0,7.19 0,11.29 -8.21,12.32 -16.44,24.66 -24.65,36.99 1.03,2.04 3.08,3.08 5.13,5.13 8.22,6.16 17.47,12.33 24.66,19.52 0,3.07 0,6.17 0,9.25 -3.08,3.08 -6.17,6.16 -9.25,10.27 -12.33,-0.01 -25.68,-12.33 -35.95,-19.52 -4.11,0 -22.6,30.82 -22.6,31.85 -4.1,3.07 -7.19,6.16 -11.3,10.27 -12.33,-2.06 -20.55,-8.22 -29.8,-18.49 0.01,-7.19 6.17,-14.38 4.11,-20.55 -3.08,-0.01 -4.11,1.03 -7.19,2.06 -8.21,11.3 -15.41,22.6 -23.63,33.9 -2.05,1.02 -3.08,2.05 -4.1,3.08 -2.05,-0.01 -5.14,0 -8.22,0 -8.22,-5.15 -16.44,-10.27 -24.66,-15.41 -2.04,-6.17 2.06,-12.32 5.14,-17.46 0,-2.06 0,-4.11 0,-6.17 -1.02,-1.03 -1.03,-1.03 -3.08,-1.03 -11.3,13.35 -20.55,26.72 -30.82,41.1 -3.08,0 -5.14,0 -8.22,0 -8.21,-3.09 -18.49,-9.25 -24.66,-17.47 0.01,-7.19 3.09,-11.29 5.14,-17.46 0,-1.03 0,-2.05 0,-3.08 -1.03,-1.04 -3.08,-1.03 -4.11,-2.06 -9.24,12.32 -23.62,29.8 -30.82,43.15 -6.15,-0.01 -10.27,0 -15.4,-2.05 -5.14,-3.1 -10.28,-7.2 -15.41,-10.28 -1.03,-1.02 -2.06,-3.08 -2.06,-4.11 0.01,-3.09 0,-5.13 0,-8.21 23.63,-46.23 63.69,-85.27 86.29,-131.5 0.01,-1.02 -1.03,-1.02 -1.03,-2.05 -11.29,-6.16 -22.6,-15.41 -34.92,-19.52 -1.03,3.08 -6.17,13.36 -8.22,14.38 -7.19,-1.02 -13.35,-2.05 -20.55,-2.05 -2.05,-1.04 -4.1,-2.06 -6.16,-2.06 -3.08,2.05 -5.14,3.09 -7.19,5.14 -3.07,0 -7.19,0 -10.27,0 -5.13,-1.03 -9.25,-3.08 -14.38,-4.11 -1.02,-2.06 -2.06,-3.08 -3.09,-5.14 -5.13,-0.01 -9.24,3.08 -14.38,3.08 -6.16,-2.06 -11.3,-5.13 -16.44,-7.19 -3.07,5.13 -6.16,4.11 -11.3,5.14 -6.16,-2.06 -11.3,-3.08 -17.46,-5.14 -1.02,-2.06 -2.05,-5.13 -2.05,-7.19 -7.2,-0.01 -9.25,1.03 -14.39,-4.11 -3.07,-5.14 -6.16,-10.27 -9.24,-15.41 0,-12.33 0,-23.62 2.05,-35.95 -25.67,-11.3 -56.5,-16.44 -84.24,-23.63 -1.01,-0.01 -2.05,0 -3.08,0 2.07,14.37 7.19,29.79 10.28,43.15 2.06,16.42 5.13,32.87 7.19,48.28 6.17,57.52 8.21,116.08 4.11,174.64 -3.08,19.52 -6.17,39.03 -10.28,58.55 -5.12,27.74 -16.43,55.48 -27.73,82.19 -3.07,7.18 -7.19,14.38 -10.28,21.57 -16.43,26.7 -35.95,52.39 -57.53,76.02 -5.12,5.13 -10.27,9.24 -15.4,14.38 -9.25,23.62 -12.33,50.34 -15.41,74.99 5.13,9.25 9.24,17.47 14.38,26.71 11.31,21.57 19.52,45.2 27.74,68.83 2.05,10.27 4.11,20.55 7.19,30.82 2.06,13.35 3.08,27.74 5.13,41.09 0,19.52 0,39.04 -2.05,58.55 -3.08,12.32 -6.16,25.69 -8.22,39.04 -14.37,44.16 -31.85,87.32 -50.34,129.44 -8.21,17.45 -16.43,33.9 -24.65,51.36 -3.07,8.21 -13.35,21.58 -12.33,30.82 4.12,4.1 9.25,8.22 13.36,12.33 2.05,17.45 6.16,31.85 15.41,47.26 14.38,15.39 28.76,30.81 41.09,47.25 3.09,7.19 6.16,14.38 11.3,19.52 16.43,7.18 34.93,12.33 45.2,27.74 0.01,5.12 1.03,10.27 3.08,14.38 -74.64,0 -149.3,0 -223.95,0 0,-3.09 0,-6.17 0,-10.27 3.08,-8.23 5.14,-16.44 9.25,-25.69 -3.08,-11.31 -5.14,-24.65 -7.19,-36.98 0.01,-19.52 1.02,-39.04 4.1,-58.55 3.09,-16.45 6.17,-32.88 9.25,-49.32 0,-30.81 -5.14,-64.71 -9.25,-96.56 -5.12,-47.27 -11.29,-94.51 -17.46,-141.77 0,-1.02 0,-3.08 0,-5.13 0,0 0,0 -1.03,0 -4.1,78.06 -10.27,156.15 -16.43,234.22 0,17.46 0,34.93 3.08,51.36 1.04,8.22 3.08,16.44 5.14,24.66 0.01,15.41 0,30.82 -1.03,46.23 -2.06,11.29 -4.11,21.57 -5.14,32.87 4.11,11.29 8.22,23.63 10.28,35.95 -36.98,-0.01 -73.97,-1.02 -110.95,-1.02 -37.31,0 -74.74,1.02 -111.98,1.01zm-130.45 -1251.23c-6.16,-6.16 -12.34,-11.29 -17.47,-17.45 -4.1,-8.22 -7.2,-15.41 -14.39,-20.55 -3.08,-1.04 -7.19,-1.03 -8.21,-2.05 -2.05,-22.6 -3.09,-45.2 -3.09,-68.83 4.11,-7.19 9.25,-14.38 14.39,-22.6 19.51,-39.04 26.7,-84.24 19.51,-128.41 -4.11,-11.3 -7.19,-22.6 -10.27,-33.9 -4.11,-8.23 -9.24,-15.41 -13.35,-23.63 0.01,-7.19 15.41,-23.63 19.51,-29.79 17.47,-6.16 35.96,-14.38 52.39,-22.6 4.12,-3.08 14.39,-12.33 18.5,-10.27 17.47,32.87 40.06,63.69 69.85,87.32 2.07,7.18 5.14,14.38 8.22,21.57 6.16,19.51 12.33,39.04 19.52,59.58 2.06,14.38 4.11,28.76 7.19,43.15 0.01,4.11 0,8.21 1.03,11.3 -10.28,14.38 -13.36,33.9 -17.47,50.34 -7.19,10.26 -13.35,20.54 -20.54,30.81 -7.18,15.41 -14.38,30.82 -21.57,46.23 0,1.03 0,1.03 0,2.05 -14.39,4.11 -28.77,8.22 -43.15,12.33 -20.55,5.13 -41.09,10.28 -60.6,15.4zm713.96 0c-15.41,-5.13 -30.83,-9.23 -46.23,-13.34 -13.36,-3.1 -26.72,-7.2 -39.04,-10.28 -5.13,-1.02 -11.3,-3.08 -16.44,-4.11 -3.08,-6.16 -7.19,-16.43 -9.24,-23.62 -5.13,-10.28 -11.3,-20.55 -15.41,-29.79 -6.16,-9.26 -11.3,-17.47 -17.47,-26.71 -8.22,-17.47 -8.22,-38.01 -20.54,-53.42 4.12,-47.27 17.46,-91.43 36.98,-134.58 17.46,-18.49 33.9,-36.98 49.31,-58.55 6.16,-10.28 12.32,-20.55 19.52,-30.82 7.19,5.14 13.35,10.27 21.57,15.41 14.38,7.19 31.85,15.41 49.31,18.49 5.15,5.14 18.49,21.57 17.46,29.79 -9.24,15.4 -15.41,32.87 -20.54,50.34 -2.05,8.21 -4.11,17.46 -5.14,25.68 0,6.17 -1.03,13.36 -1.03,19.52 1.03,19.52 3.09,35.95 9.25,54.44 5.15,10.27 10.27,20.55 16.44,31.85 4.11,7.19 9.24,15.41 13.35,22.6 4.11,22.6 3.08,46.23 -1.03,67.8 -1.01,2.05 -2.05,4.11 -2.05,7.19 -3.08,1.03 -6.17,2.06 -8.22,3.08 -10.27,12.32 -21.57,23.63 -27.74,38.02 -1.01,-0.01 -2.05,0 -3.07,1.01zm-355.45 721.16c-13.34,-42.11 -19.52,-89.37 -13.35,-133.54 8.22,-27.75 11.3,-58.56 12.32,-87.32 0,-12.34 0,-23.63 0,-34.93 -2.04,-25.69 -6.16,-50.34 -15.4,-72.93 0,-11.31 8.21,-25.69 12.32,-35.96 0.01,-4.11 1.03,-8.22 2.06,-12.33 0.01,-5.15 1.02,-11.3 1.02,-17.46 1.03,-0.01 1.03,0 1.03,0 3.08,23.61 9.25,44.17 16.44,65.75 -3.07,11.28 -6.17,23.62 -9.25,35.95 -2.05,17.45 -4.11,33.9 -6.16,51.37 0.01,13.34 0,26.7 0,40.06 2.05,31.84 7.19,62.66 15.41,94.51 0,22.6 0,46.23 -3.08,68.83 -2.06,6.16 -3.09,13.35 -5.14,20.54 -2.04,5.13 -4.11,11.3 -6.16,17.47 -1.02,-0.01 -1.03,0 -2.06,-0.01z"/>
  <path class="fil3" d="M13178.99 14281.61c-85.98,0 -155.71,69.72 -155.71,155.7 0,85.97 69.72,155.7 155.7,155.7 85.98,-0.01 155.7,-69.72 155.7,-155.7 0,-85.98 -69.72,-155.7 -155.69,-155.7zm115.44 162.66c0,-2.55 0.25,-5.12 0.25,-7.71 0,-62.96 -51.05,-114 -114,-114 -51.43,-0.01 -94.67,33.22 -108.86,80.03l63.25 -52.03c18.29,-15.05 44.72,-38.84 75.81,-3.05 15.54,17.88 6.6,25.65 5.42,42.37 25.66,-6.6 33.44,2.35 48.98,20.24 14.56,16.76 21.84,25.74 29.15,34.15zm-0.42 4.62c-5.48,57.87 -54.05,101.67 -113.33,101.67 -62.95,0 -114,-51.05 -114,-114 0,-10.98 1.27,-20.63 4.17,-30.68l118.17 133.27 32.02 -27.81 -54.39 -62.61 18.89 -14.88c26.81,-23.3 48.3,1.48 65.65,21.44l15.59 17.87 27.23 -24.27zm-143.79 -74.03c4.94,-4.29 19.1,-7.92 27.67,1.95 8.58,9.86 3,23.39 -1.94,27.67l-24.65 21.45 -25.74 -29.63 24.66 -21.44z"/>
 </g>
</svg>
